<?xml version="1.0" encoding="iso-8859-1"?>
<!-- Generator: Adobe Illustrator 16.0.0, SVG Export Plug-In . SVG Version: 6.00 Build 0)  -->
<!DOCTYPE svg PUBLIC "-//W3C//DTD SVG 1.1//EN" "http://www.w3.org/Graphics/SVG/1.1/DTD/svg11.dtd">
<svg version="1.1" id="Capa_1" xmlns="http://www.w3.org/2000/svg" xmlns:xlink="http://www.w3.org/1999/xlink" x="0px" y="0px"
	 width="525.389px" height="525.389px" viewBox="0 0 525.389 525.389" style="enable-background:new 0 0 525.389 525.389;"
	 xml:space="preserve">
<g>
	<g>
		<path d="M521.85,374.112h-28.793l-5.523-199.748c5.438-0.713,9.654-5.367,9.654-10.997c0-2.064-0.574-3.992-1.562-5.649
			c8.373-3.344,14.312-11.521,14.312-21.073c0-12.515-10.182-22.698-22.697-22.698H182.706c-12.515,0-22.697,10.184-22.697,22.698
			c0,9.554,5.938,17.729,14.312,21.073c-0.985,1.658-1.562,3.585-1.562,5.649c0,5.629,4.216,10.282,9.653,10.997l-5.523,199.748
			h-49.624l-5.602-165.991c-0.064-1.907-1.629-3.419-3.538-3.419H87.208c-1.908,0-3.472,1.513-3.538,3.419l-5.602,165.991h-9.253
			l-5.523-199.748c5.437-0.713,9.653-5.367,9.653-10.997c0-6.122-4.98-11.103-11.103-11.103h-35.29
			c-6.121,0-11.102,4.98-11.102,11.103c0,5.629,4.216,10.282,9.655,10.997L19.58,374.112H3.539c-1.955,0-3.539,1.583-3.539,3.538
			v30.252c0,1.955,1.584,3.539,3.539,3.539H521.85c1.955,0,3.539-1.584,3.539-3.539V377.65
			C525.389,375.695,523.805,374.112,521.85,374.112z M426.322,374.112l-5.523-199.748c5.438-0.713,9.656-5.367,9.656-10.997
			c0-1.421-0.277-2.775-0.768-4.025h10.768c-0.486,1.25-0.764,2.604-0.764,4.025c0,5.629,4.215,10.283,9.654,10.997l-5.523,199.748
			H426.322z M359.592,374.112l-5.523-199.748c5.438-0.713,9.654-5.367,9.654-10.997c0-1.421-0.277-2.775-0.768-4.025h10.77
			c-0.488,1.25-0.766,2.604-0.766,4.025c0,5.629,4.217,10.283,9.654,10.997l-5.525,199.748H359.592z M292.857,374.112
			l-5.523-199.748c5.439-0.713,9.654-5.367,9.654-10.997c0-1.421-0.277-2.775-0.766-4.025h10.77
			c-0.488,1.25-0.766,2.604-0.766,4.025c0,5.628,4.215,10.282,9.652,10.997l-5.523,199.748H292.857z M226.127,374.112
			l-5.526-199.748c5.438-0.713,9.654-5.367,9.654-10.997c0-1.421-0.279-2.775-0.767-4.025h10.769
			c-0.488,1.25-0.766,2.604-0.766,4.025c0,5.629,4.215,10.282,9.654,10.997l-5.524,199.748H226.127z M289.91,163.368
			c0,2.219-1.805,4.023-4.023,4.023h-2.188h-30.917h-2.188c-2.22,0-4.024-1.805-4.024-4.023c0-2.218,1.804-4.025,4.024-4.025h35.292
			C288.104,159.342,289.91,161.149,289.91,163.368z M256.224,174.469h24.032l5.521,199.643h-35.074L256.224,174.469z
			 M356.645,163.368c0,2.219-1.807,4.023-4.025,4.023h-2.188h-30.916h-2.189c-2.219,0-4.023-1.805-4.023-4.023
			c0-2.218,1.807-4.025,4.023-4.025h35.293C354.838,159.342,356.645,161.149,356.645,163.368z M322.955,174.469h24.035
			l5.521,199.643h-35.078L322.955,174.469z M423.377,163.368c0,2.219-1.805,4.023-4.023,4.023h-2.189h-30.916h-2.188
			c-2.219,0-4.025-1.805-4.025-4.023c0-2.218,1.807-4.025,4.025-4.025h35.293C421.572,159.342,423.377,161.149,423.377,163.368z
			 M389.688,174.469h24.033l5.521,199.643h-35.076L389.688,174.469z M456.422,174.469h24.033l5.521,199.643h-35.074L456.422,174.469
			z M486.086,167.392h-2.188H452.98h-2.188c-2.219,0-4.023-1.805-4.023-4.023c0-2.218,1.805-4.025,4.023-4.025h35.295
			c2.219,0,4.021,1.805,4.021,4.025C490.107,165.587,488.305,167.392,486.086,167.392z M167.086,136.646
			c0-8.613,7.006-15.621,15.62-15.621H487.24c8.611,0,15.619,7.007,15.619,15.621c0,8.612-7.008,15.621-15.619,15.621h-1.156
			h-35.295h-31.436h-35.295h-31.439h-35.293h-31.439h-35.293h-31.44h-35.293h-1.155
			C174.094,152.265,167.086,145.257,167.086,136.646z M179.838,163.368c0-2.219,1.805-4.025,4.023-4.025h35.293
			c2.219,0,4.024,1.805,4.024,4.025c0,2.219-1.805,4.023-4.024,4.023h-2.188h-30.917h-2.188
			C181.642,167.392,179.838,165.587,179.838,163.368z M189.491,174.469h24.034l5.522,199.643H183.97L189.491,174.469z
			 M90.63,211.779h24.075l5.479,162.333h-35.03L90.63,211.779z M22.528,163.368c0-2.219,1.805-4.025,4.024-4.025h35.293
			c2.22,0,4.025,1.805,4.025,4.025c0,2.219-1.804,4.023-4.025,4.023h-2.187H28.741h-2.189
			C24.333,167.392,22.528,165.587,22.528,163.368z M32.183,174.469h24.034l5.521,199.643H26.661L32.183,174.469z M518.311,404.363
			H7.078v-23.175h15.946h42.351h16.117h42.352h56.487h42.352h24.38h42.351h24.381h42.354h24.379h42.354h24.381h42.352h28.695v23.175
			H518.311z"/>
	</g>
</g>
<g>
</g>
<g>
</g>
<g>
</g>
<g>
</g>
<g>
</g>
<g>
</g>
<g>
</g>
<g>
</g>
<g>
</g>
<g>
</g>
<g>
</g>
<g>
</g>
<g>
</g>
<g>
</g>
<g>
</g>
</svg>
